<svg width="250" height="250" viewBox="0 0 66.146 66.146" xmlns="http://www.w3.org/2000/svg">
  <path d="M38.394 28.743c17.188 7.956 29.446 17.26 27.56 21.33C64 54.29 47.693 51.116 29.534 42.98 11.377 34.845-1.76 24.832.192 20.617c.957-2.062 5.327-2.31 11.663-1.077 0 0 .058.019.052.05-.006.032-.069.032-.069.032-4.533-.661-7.332-.255-7.883.934-1.19 2.57 10.479 10.313 26.068 17.297 15.589 6.982 29.195 10.56 30.383 7.99 1.109-2.395-9.266-9.961-22.072-16.973 0 0-.063-.048-.042-.101.02-.053.102-.026.102-.026" fill="#fff"/>
  <path d="M47.61 1.858c-6.678-3-14.331-2.246-21.327 1.39 0 0-.052.044-.03.087.021.043.092.023.092.023C32.1.835 38.177.482 43.52 2.884c12.036 5.408 15.787 22.708 8.382 38.643-7.41 15.935-23.17 24.462-35.206 19.06-5.343-2.4-9.046-7.146-10.872-13.073 0 0-.027-.057-.075-.04-.048.015-.048.074-.048.074 1.784 7.57 6.213 13.746 12.883 16.738 13.408 6.022 30.775-3.06 38.79-20.302 8.014-17.242 3.642-36.101-9.765-42.126" fill="#fff"/>
  <path d="M57.408 46.663c-2.278-.102-5.693-.838-9.835-2.098L45.055 48.9c3.838 1.19 7.351 2.05 10.363 2.543l1.99-4.78" fill="#fff"/>
</svg>
