<svg xmlns="http://www.w3.org/2000/svg" viewBox="0 0 204 85"><path d="M7.33 59.7H5.773a6.306 6.306 0 01-4.123-1.227A6.043 6.043 0 01.059 56.49a.333.333 0 01.145-.506l1.88-.974a.346.346 0 01.507.18 3.64 3.64 0 003.183 2.021h1.555a3.554 3.554 0 003.58-3.536c0-2.418-2.205-3.465-4.629-4.548C3.495 47.863.35 46.456.35 42.27c0-3.464 2.568-6.026 6.401-6.026h.58a6.28 6.28 0 014.556 1.588 6.309 6.309 0 011.194 1.588.344.344 0 01-.18.505l-1.918.938c-.18.108-.325.036-.434-.144a3.769 3.769 0 00-3.219-1.985H6.75a3.337 3.337 0 00-3.544 3.537c0 2.165 2.351 3.14 4.919 4.294 2.713 1.227 5.606 2.851 5.606 7.11 0 3.536-2.46 6.027-6.402 6.027zM31.274 59.087a.324.324 0 01-.362.253h-1.627a.324.324 0 01-.362-.253L25.957 48.91a10.177 10.177 0 01-.362-1.805h-.108a13.01 13.01 0 01-.398 1.805l-2.93 10.177a.324.324 0 01-.361.253H20.17a.324.324 0 01-.362-.253l-4.702-15.374c-.072-.289.037-.47.362-.47h2.315a.324.324 0 01.362.254l2.46 9.707a16.974 16.974 0 01.36 1.769h.11a13.23 13.23 0 01.397-1.769l2.821-9.707a.324.324 0 01.362-.253h1.917a.324.324 0 01.362.253l2.712 9.383a11.965 11.965 0 01.398 1.985h.109a20.349 20.349 0 01.398-2.021l2.423-9.347a.324.324 0 01.362-.253h2.278c.326 0 .434.18.362.469zM40.173 39.815a1.787 1.787 0 111.809-1.804 1.812 1.812 0 01-1.809 1.804zm1.085 19.525h-2.134c-.253 0-.361-.109-.361-.361V43.605c0-.253.108-.361.361-.361h2.134c.253 0 .362.108.362.36V58.98c0 .252-.109.36-.362.36zM52.254 59.7H51.17a6.188 6.188 0 01-4.304-1.407 5.72 5.72 0 01-1.374-1.768c-.109-.217-.037-.361.18-.47l1.737-.866a.32.32 0 01.47.145 3.876 3.876 0 003.291 2.02h1.085c2.026 0 3.039-1.154 3.039-2.49 0-1.768-2.351-2.02-4.883-2.526-2.388-.469-4.956-1.515-4.956-4.547 0-3.284 2.46-4.908 5.715-4.908h1.085a6.414 6.414 0 014.16 1.263 5.987 5.987 0 011.519 1.84.344.344 0 01-.18.506l-1.737.866a.327.327 0 01-.47-.144 3.84 3.84 0 00-3.292-1.985H51.17c-2.097 0-2.93 1.01-2.93 2.201 0 1.985 2.351 2.166 4.811 2.67 2.749.578 5.064 1.48 5.064 4.404 0 2.85-1.99 5.197-5.86 5.197zM67.771 59.7h-1.085a6.188 6.188 0 01-4.304-1.407 5.72 5.72 0 01-1.374-1.768c-.109-.217-.036-.361.18-.47l1.737-.866a.32.32 0 01.47.145 3.876 3.876 0 003.291 2.02h1.085c2.026 0 3.039-1.154 3.039-2.49 0-1.768-2.351-2.02-4.883-2.526-2.387-.469-4.955-1.515-4.955-4.547 0-3.284 2.46-4.908 5.714-4.908h1.085a6.414 6.414 0 014.16 1.263 5.987 5.987 0 011.52 1.84.344.344 0 01-.182.506l-1.736.866a.327.327 0 01-.47-.144 3.84 3.84 0 00-3.292-1.985h-1.085c-2.097 0-2.93 1.01-2.93 2.201 0 1.985 2.352 2.166 4.811 2.67 2.749.578 5.064 1.48 5.064 4.404 0 2.85-1.99 5.197-5.86 5.197zM97.537 39.094H93.27c-.253 0-.362.108-.362.36V58.98c0 .252-.108.36-.361.36h-2.134c-.253 0-.362-.108-.362-.36V39.455c0-.253-.108-.361-.362-.361h-4.267c-.254 0-.362-.109-.362-.361v-1.769c0-.252.108-.36.362-.36h12.116c.253 0 .362.108.362.36v1.769c0 .252-.109.36-.362.36zM108.352 49.054h-4.304c-.253 0-.361.108-.361.361v9.564c0 .252-.109.36-.362.36h-2.098c-.253 0-.362-.108-.362-.36V36.964c0-.252.109-.36.362-.36h7.125a5.993 5.993 0 016.402 6.387c0 3.429-2.495 6.063-6.402 6.063zm3.581-6.424a3.578 3.578 0 00-3.58-3.537h-4.305c-.253 0-.361.109-.361.361v6.75c0 .252.108.36.361.36h4.304a3.585 3.585 0 003.581-3.573zM131.465 59.34h-2.134c-.253 0-.362-.109-.362-.361v-9.564c0-.253-.108-.36-.361-.36h-8.066c-.253 0-.362.107-.362.36v9.564c0 .252-.108.36-.361.36h-2.098c-.253 0-.362-.108-.362-.36V36.964c0-.252.109-.36.362-.36h2.098c.253 0 .361.108.361.36v9.24c0 .252.109.36.362.36h8.066c.253 0 .361-.108.361-.36v-9.24c0-.252.109-.36.362-.36h2.134c.253 0 .362.108.362.36V58.98c0 .252-.109.36-.362.36zM3.041 82.181h-.565a2.29 2.29 0 01-1.498-.446 2.194 2.194 0 01-.578-.72.12.12 0 01.053-.184l.683-.354a.126.126 0 01.184.066 1.323 1.323 0 001.156.734h.565a1.291 1.291 0 001.301-1.285c0-.878-.802-1.258-1.682-1.652-1.012-.459-2.155-.97-2.155-2.49a2.167 2.167 0 012.326-2.19h.21a2.281 2.281 0 011.656.577 2.298 2.298 0 01.433.577.125.125 0 01-.065.183l-.697.34c-.066.04-.118.014-.157-.052a1.37 1.37 0 00-1.17-.72h-.21a1.212 1.212 0 00-1.288 1.284c0 .787.854 1.14 1.787 1.56.986.446 2.037 1.036 2.037 2.583a2.131 2.131 0 01-2.326 2.19zM11.739 81.959a.118.118 0 01-.132.091h-.591a.118.118 0 01-.131-.091L9.807 78.26a3.681 3.681 0 01-.131-.655h-.04a4.7 4.7 0 01-.144.655L8.428 81.96a.118.118 0 01-.132.091h-.59a.118.118 0 01-.132-.091l-1.708-5.585c-.027-.105.013-.17.13-.17h.842a.118.118 0 01.131.09l.894 3.528a6.177 6.177 0 01.131.642h.04a4.769 4.769 0 01.144-.642l1.025-3.527a.118.118 0 01.131-.092h.696a.118.118 0 01.132.092l.985 3.409a4.347 4.347 0 01.145.72h.04a7.361 7.361 0 01.144-.734l.88-3.395a.118.118 0 01.131-.092h.828c.119 0 .158.066.132.17zM14.97 74.958a.65.65 0 11.657-.656.658.658 0 01-.657.656zm.394 7.092h-.775c-.092 0-.131-.04-.131-.13v-5.586c0-.091.04-.13.131-.13h.775c.092 0 .132.039.132.13v5.585c0 .092-.04.131-.132.131zM19.358 82.181h-.394a2.247 2.247 0 01-1.564-.51 2.08 2.08 0 01-.499-.644c-.04-.078-.013-.13.066-.17l.63-.314a.116.116 0 01.171.052 1.408 1.408 0 001.196.734h.394c.736 0 1.104-.42 1.104-.904 0-.643-.854-.735-1.774-.918-.867-.17-1.8-.55-1.8-1.652 0-1.193.894-1.783 2.076-1.783h.394a2.33 2.33 0 011.511.459 2.175 2.175 0 01.552.669.125.125 0 01-.066.183l-.63.315a.119.119 0 01-.171-.053 1.395 1.395 0 00-1.196-.72h-.394c-.762 0-1.064.366-1.064.799 0 .721.854.786 1.747.97.999.21 1.84.537 1.84 1.6a1.89 1.89 0 01-2.129 1.887zM24.994 82.181H24.6a2.247 2.247 0 01-1.564-.51 2.08 2.08 0 01-.499-.644c-.04-.078-.013-.13.066-.17l.63-.314a.116.116 0 01.171.052 1.408 1.408 0 001.196.734h.394c.736 0 1.104-.42 1.104-.904 0-.643-.854-.735-1.774-.918-.867-.17-1.8-.55-1.8-1.652 0-1.193.893-1.783 2.076-1.783h.394a2.33 2.33 0 011.511.459 2.175 2.175 0 01.552.669.125.125 0 01-.066.183l-.63.315a.119.119 0 01-.171-.053 1.395 1.395 0 00-1.196-.72H24.6c-.762 0-1.064.366-1.064.799 0 .721.854.786 1.747.97.999.21 1.84.537 1.84 1.6a1.89 1.89 0 01-2.129 1.887zM34.545 74.696h-1.55c-.092 0-.132.039-.132.13v7.093c0 .092-.039.131-.131.131h-.775c-.092 0-.132-.04-.132-.13v-7.093c0-.092-.039-.131-.13-.131h-1.551c-.092 0-.132-.04-.132-.131v-.643c0-.092.04-.131.132-.131h4.401c.092 0 .132.04.132.131v.643c0 .091-.04.13-.132.13zM37.593 77.291a.687.687 0 00-.237-.04 1.22 1.22 0 00-1.287 1.26v3.408c0 .092-.04.131-.132.131h-.775c-.092 0-.131-.04-.131-.13v-5.586c0-.091.04-.13.131-.13h.644c.092 0 .131.039.131.13v.538c0 .144.132.21.224.091a1.574 1.574 0 011.195-.76h.29c.091 0 .118.052.118.145v.825c0 .105-.066.158-.171.118zM40.759 82.181a2.157 2.157 0 01-2.326-2.176v-1.757a2.33 2.33 0 014.651 0v1.757a2.15 2.15 0 01-2.325 2.176zm1.287-3.998a1.289 1.289 0 00-2.575.065v1.823a1.289 1.289 0 002.575-.066zM47.078 82.05a1.81 1.81 0 01-1.196-.577c-.105-.104-.223-.052-.223.105v3.29c0 .093-.04.132-.131.132h-.775c-.093 0-.132-.04-.132-.131v-8.535c0-.091.04-.13.132-.13h.643c.092 0 .132.039.132.13v.34c0 .145.131.21.223.093a1.5 1.5 0 011.196-.564 2.14 2.14 0 012.338 2.176v1.482a2.142 2.142 0 01-2.207 2.19zm1.17-3.67a1.308 1.308 0 00-1.301-1.286 1.288 1.288 0 00-1.288 1.285v1.482a1.294 1.294 0 002.588 0zM51.334 74.958a.65.65 0 11.657-.656.658.658 0 01-.657.656zm.395 7.092h-.776c-.092 0-.13-.04-.13-.13v-5.586c0-.091.038-.13.13-.13h.776c.091 0 .131.039.131.13v5.585c0 .092-.04.131-.131.131zM57.313 81.657a2.283 2.283 0 01-1.59.524 2.16 2.16 0 01-2.326-2.189v-1.744a2.15 2.15 0 012.326-2.176 2.347 2.347 0 011.59.511 2.294 2.294 0 01.499.63.125.125 0 01-.066.183l-.696.354c-.066.04-.118.013-.158-.052a1.412 1.412 0 00-1.17-.735 1.226 1.226 0 00-1.287 1.285v1.744a1.226 1.226 0 001.288 1.285 1.372 1.372 0 001.17-.747.119.119 0 01.17-.053l.696.354c.08.04.092.092.053.17a2.635 2.635 0 01-.5.656zM63.29 82.05h-.63c-.092 0-.132-.04-.132-.13v-.368c0-.144-.131-.21-.236-.105a1.877 1.877 0 01-1.144.603h-.512a1.599 1.599 0 01-1.708-1.586v-.079a1.589 1.589 0 011.708-1.573h1.616c.092 0 .132-.04.132-.131v-.446a1.27 1.27 0 00-1.301-1.258 1.328 1.328 0 00-1.156.72.13.13 0 01-.184.053l-.67-.354a.114.114 0 01-.053-.183 2.247 2.247 0 01.539-.63 2.332 2.332 0 011.524-.498 2.113 2.113 0 012.339 2.15v3.684c0 .092-.04.131-.132.131zm-.906-2.346c0-.092-.04-.131-.132-.131h-1.616a.678.678 0 00-.683.681v.21a.686.686 0 00.683.681h.512a1.43 1.43 0 001.236-1.035zM65.733 82.05h-.775c-.092 0-.131-.04-.131-.13v-7.998c0-.092.04-.131.131-.131h.775c.092 0 .132.04.132.131v7.997c0 .092-.04.131-.132.131zM73.945 82.05h-.631c-.092 0-.131-.04-.131-.13v-.368c0-.144-.132-.21-.237-.105a1.877 1.877 0 01-1.143.603h-.512a1.599 1.599 0 01-1.709-1.586v-.079a1.589 1.589 0 011.709-1.573h1.616c.091 0 .131-.04.131-.131v-.446a1.27 1.27 0 00-1.3-1.258 1.328 1.328 0 00-1.157.72.13.13 0 01-.184.053l-.67-.354a.114.114 0 01-.053-.183 2.247 2.247 0 01.54-.63 2.332 2.332 0 011.523-.498 2.113 2.113 0 012.339 2.15v3.684c0 .092-.04.131-.131.131zm-.907-2.346c0-.092-.04-.131-.131-.131H71.29a.678.678 0 00-.684.681v.21a.686.686 0 00.684.681h.512a1.43 1.43 0 001.235-1.035zM80.277 82.05h-.775c-.092 0-.131-.04-.131-.13v-3.54a1.308 1.308 0 00-1.301-1.286 1.288 1.288 0 00-1.288 1.285v3.54c0 .092-.04.131-.131.131h-.775c-.092 0-.132-.04-.132-.13v-5.586c0-.091.04-.13.132-.13h.644c.091 0 .13.039.13.13v.34c0 .145.132.21.224.093a1.517 1.517 0 011.196-.564 2.14 2.14 0 012.339 2.176v3.54c0 .092-.04.131-.132.131zM86.137 82.05h-.631c-.092 0-.132-.04-.132-.13v-.368c0-.144-.13-.197-.236-.092a1.742 1.742 0 01-1.196.59 2.138 2.138 0 01-2.325-2.189v-1.482a2.12 2.12 0 012.194-2.176 1.56 1.56 0 011.196.564c.092.118.223.065.223-.092v-2.753c0-.092.04-.131.131-.131h.776c.092 0 .13.04.13.131v7.997c0 .092-.038.131-.13.131zm-.907-3.67a1.288 1.288 0 00-2.575 0v1.481a1.288 1.288 0 002.575 0zM93.152 78.314h-1.564c-.092 0-.131.039-.131.131v3.474c0 .092-.04.131-.132.131h-.762c-.092 0-.13-.04-.13-.13v-7.998c0-.092.038-.131.13-.131h2.589a2.262 2.262 0 110 4.523zm1.3-2.334a1.3 1.3 0 00-1.3-1.284h-1.564c-.092 0-.131.039-.131.13v2.452c0 .092.04.131.131.131h1.564a1.302 1.302 0 001.3-1.298zM100.68 82.05h-.631c-.092 0-.131-.04-.131-.13v-.368c0-.144-.145-.21-.237-.092a1.531 1.531 0 01-1.196.59 2.138 2.138 0 01-2.325-2.189v-3.527c0-.091.04-.13.131-.13h.776c.091 0 .13.039.13.13v3.527a1.294 1.294 0 002.59 0v-3.527c0-.091.039-.13.13-.13h.763c.092 0 .131.039.131.13v5.585c0 .092-.04.131-.131.131zM104.608 82.05a1.75 1.75 0 01-1.196-.577c-.105-.104-.223-.065-.223.092v.354c0 .092-.04.131-.132.131h-.644c-.092 0-.13-.04-.13-.13v-7.998c0-.092.038-.131.13-.131h.776c.092 0 .131.04.131.131v2.74c0 .144.131.197.223.092a1.629 1.629 0 011.196-.55 2.139 2.139 0 012.207 2.175v1.482a2.15 2.15 0 01-2.338 2.19zm1.3-3.67a1.308 1.308 0 00-1.3-1.286 1.288 1.288 0 00-1.288 1.285v1.482a1.294 1.294 0 002.588 0zM109.127 82.05h-.776c-.092 0-.13-.04-.13-.13v-7.998c0-.092.038-.131.13-.131h.776c.092 0 .131.04.131.131v7.997c0 .092-.04.131-.131.131zM111.242 74.958a.65.65 0 11.657-.656.658.658 0 01-.657.656zm.394 7.092h-.775c-.092 0-.131-.04-.131-.13v-5.586c0-.091.039-.13.131-.13h.775c.092 0 .132.039.132.13v5.585c0 .092-.04.131-.132.131zM116.957 81.657a2.283 2.283 0 01-1.59.524 2.16 2.16 0 01-2.325-2.189v-1.744a2.15 2.15 0 012.325-2.176 2.347 2.347 0 011.59.511 2.294 2.294 0 01.5.63.125.125 0 01-.066.183l-.697.354c-.065.04-.118.013-.157-.052a1.412 1.412 0 00-1.17-.735 1.226 1.226 0 00-1.287 1.285v1.744a1.226 1.226 0 001.287 1.285 1.372 1.372 0 001.17-.747.119.119 0 01.17-.053l.697.354c.079.04.092.092.052.17a2.635 2.635 0 01-.499.656zM126.285 82.05h-.775c-.093 0-.132-.04-.132-.13v-3.475c0-.092-.04-.131-.131-.131h-2.93c-.092 0-.131.039-.131.131v3.474c0 .092-.04.131-.132.131h-.762c-.092 0-.131-.04-.131-.13v-7.998c0-.092.04-.131.131-.131h.762c.092 0 .132.04.132.131v3.356c0 .092.039.131.131.131h2.93c.092 0 .131-.04.131-.13v-3.357c0-.092.04-.131.132-.131h.775c.092 0 .131.04.131.131v7.997c0 .092-.04.131-.131.131zM132.341 79.245h-3.35c-.092 0-.131.04-.131.13v.617a1.297 1.297 0 001.287 1.285 1.372 1.372 0 001.17-.747.12.12 0 01.17-.053l.696.354c.08.04.092.092.053.17a2.37 2.37 0 01-.433.59 2.209 2.209 0 01-1.656.59 2.132 2.132 0 01-2.326-2.189v-1.744a2.33 2.33 0 014.652 0v.866c0 .091-.04.13-.132.13zm-.907-1.062a1.288 1.288 0 00-2.574.065v.144c0 .066.065.08.13.08h2.313c.092 0 .131-.04.131-.132zM138.056 82.05h-.63c-.093 0-.132-.04-.132-.13v-.368c0-.144-.132-.21-.237-.105a1.877 1.877 0 01-1.143.603h-.512a1.599 1.599 0 01-1.708-1.586v-.079a1.589 1.589 0 011.708-1.573h1.616c.092 0 .131-.04.131-.131v-.446a1.269 1.269 0 00-1.3-1.258 1.328 1.328 0 00-1.157.72.13.13 0 01-.184.053l-.67-.354a.114.114 0 01-.052-.183 2.245 2.245 0 01.539-.63 2.33 2.33 0 011.524-.498 2.113 2.113 0 012.338 2.15v3.684c0 .092-.04.131-.13.131zm-.907-2.346c0-.092-.039-.131-.131-.131h-1.616a.678.678 0 00-.683.681v.21a.686.686 0 00.683.681h.512a1.429 1.429 0 001.235-1.035zM140.5 82.05h-.776c-.092 0-.131-.04-.131-.13v-7.998c0-.092.04-.131.131-.131h.775c.092 0 .132.04.132.131v7.997c0 .092-.04.131-.132.131zM144.612 82.168a2.562 2.562 0 01-1.327-.498 2.083 2.083 0 01-.762-1.678v-2.766c0-.092-.04-.132-.132-.132h-.736c-.091 0-.13-.039-.13-.13v-.354l1.497-1.574a.197.197 0 01.092-.04h.315c.092 0 .131.04.131.132v.944c0 .092.04.131.132.131h.933c.092 0 .131.04.131.131v.63c0 .091-.04.13-.131.13h-.933c-.092 0-.132.04-.132.131v2.767a1.286 1.286 0 001.091 1.259.12.12 0 01.105.13v.656a.117.117 0 01-.144.131zM150.405 82.05h-.775c-.092 0-.131-.04-.131-.13v-3.54a1.308 1.308 0 00-1.301-1.286 1.288 1.288 0 00-1.288 1.285v3.54c0 .092-.039.131-.131.131h-.775c-.092 0-.131-.04-.131-.13v-7.998c0-.092.04-.131.13-.131h.776c.092 0 .131.04.131.131v2.74c0 .144.132.197.224.092a1.628 1.628 0 011.195-.55 2.124 2.124 0 012.208 2.175v3.54c0 .092-.04.131-.132.131zM155.53 82.05h-.763c-.092 0-.131-.04-.131-.13v-7.998c0-.092.04-.131.13-.131h.763c.092 0 .132.04.132.131v7.997c0 .092-.04.131-.132.131zM161.795 82.05h-.775c-.091 0-.131-.04-.131-.13v-3.54a1.308 1.308 0 00-1.3-1.286 1.288 1.288 0 00-1.289 1.285v3.54c0 .092-.039.131-.131.131h-.775c-.092 0-.131-.04-.131-.13v-5.586c0-.091.04-.13.131-.13h.644c.092 0 .131.039.131.13v.34c0 .145.131.21.224.093a1.517 1.517 0 011.195-.564 2.14 2.14 0 012.34 2.176v3.54c0 .092-.04.131-.133.131zM165.461 82.181h-.394a2.246 2.246 0 01-1.564-.51 2.073 2.073 0 01-.5-.644c-.039-.078-.012-.13.067-.17l.63-.314a.116.116 0 01.171.052 1.408 1.408 0 001.196.734h.394c.736 0 1.104-.42 1.104-.904 0-.643-.854-.735-1.774-.918-.867-.17-1.8-.55-1.8-1.652 0-1.193.893-1.783 2.076-1.783h.394a2.33 2.33 0 011.511.459 2.175 2.175 0 01.552.669.125.125 0 01-.066.183l-.63.315a.119.119 0 01-.171-.053 1.395 1.395 0 00-1.196-.72h-.394c-.762 0-1.064.366-1.064.799 0 .721.854.786 1.747.97.998.21 1.84.537 1.84 1.6a1.89 1.89 0 01-2.129 1.887zM171.215 82.168a2.562 2.562 0 01-1.327-.498 2.083 2.083 0 01-.762-1.678v-2.766c0-.092-.04-.132-.131-.132h-.736c-.092 0-.132-.039-.132-.13v-.354l1.498-1.574a.198.198 0 01.092-.04h.315c.093 0 .132.04.132.132v.944c0 .092.04.131.131.131h.933c.092 0 .132.04.132.131v.63c0 .091-.04.13-.132.13h-.933c-.092 0-.131.04-.131.131v2.767a1.286 1.286 0 001.09 1.259.12.12 0 01.106.13v.656a.117.117 0 01-.145.131zM172.989 74.958a.65.65 0 11.656-.656.658.658 0 01-.656.656zm.394 7.092h-.775c-.092 0-.132-.04-.132-.13v-5.586c0-.091.04-.13.132-.13h.775c.092 0 .131.039.131.13v5.585c0 .092-.039.131-.131.131zM177.496 82.168a2.562 2.562 0 01-1.328-.498 2.083 2.083 0 01-.762-1.678v-2.766c0-.092-.04-.132-.131-.132h-.736c-.092 0-.131-.039-.131-.13v-.354l1.497-1.574a.198.198 0 01.092-.04h.316c.092 0 .131.04.131.132v.944c0 .092.04.131.131.131h.934c.092 0 .131.04.131.131v.63c0 .091-.04.13-.131.13h-.934c-.091 0-.131.04-.131.131v2.767a1.286 1.286 0 001.091 1.259.12.12 0 01.105.13v.656a.117.117 0 01-.144.131zM183.21 82.05h-.63c-.092 0-.132-.04-.132-.13v-.368c0-.144-.144-.21-.236-.092a1.53 1.53 0 01-1.196.59 2.139 2.139 0 01-2.325-2.189v-3.527c0-.091.04-.13.13-.13h.776c.092 0 .132.039.132.13v3.527a1.294 1.294 0 002.588 0v-3.527c0-.091.04-.13.131-.13h.762c.092 0 .132.039.132.13v5.585c0 .092-.04.131-.132.131zM187.322 82.168a2.562 2.562 0 01-1.327-.498 2.083 2.083 0 01-.762-1.678v-2.766c0-.092-.04-.132-.131-.132h-.736c-.092 0-.132-.039-.132-.13v-.354l1.498-1.574a.197.197 0 01.092-.04h.315c.093 0 .132.04.132.132v.944c0 .092.04.131.131.131h.933c.092 0 .132.04.132.131v.63c0 .091-.04.13-.132.13h-.933c-.092 0-.131.04-.131.131v2.767a1.286 1.286 0 001.09 1.259.12.12 0 01.106.13v.656a.117.117 0 01-.145.131zM192.643 79.245h-3.35c-.092 0-.131.04-.131.13v.617a1.297 1.297 0 001.287 1.285 1.372 1.372 0 001.17-.747.12.12 0 01.17-.053l.697.354c.079.04.091.092.052.17a2.37 2.37 0 01-.433.59 2.209 2.209 0 01-1.656.59 2.132 2.132 0 01-2.326-2.189v-1.744a2.33 2.33 0 014.652 0v.866c0 .091-.04.13-.132.13zm-.907-1.062a1.288 1.288 0 00-2.574.065v.144c0 .066.065.08.13.08h2.313c.092 0 .131-.04.131-.132z"/><path d="M179.293 25.972c15.303 7.189 26.215 15.596 24.537 19.274-1.741 3.809-16.259.94-32.424-6.41s-27.86-16.398-26.123-20.207c.851-1.863 4.742-2.088 10.383-.973 0 0 .052.017.047.046s-.061.028-.061.028c-4.036-.598-6.529-.23-7.019.844-1.06 2.322 9.33 9.32 23.208 15.63 13.878 6.308 25.99 9.54 27.049 7.219.988-2.164-8.25-9-19.65-15.337 0 0-.055-.043-.037-.09s.09-.024.09-.024z" fill="#bf3227"/><path d="M187.498 1.679c-5.944-2.711-12.76-2.03-18.986 1.257 0 0-.047.039-.028.078s.082.02.082.02c5.124-2.28 10.534-2.598 15.29-.428 10.716 4.887 14.056 20.519 7.463 34.917-6.597 14.399-20.628 22.103-31.343 17.223-4.756-2.17-8.053-6.457-9.68-11.813 0 0-.023-.052-.066-.037s-.042.068-.042.068c1.589 6.84 5.53 12.42 11.469 15.124 11.937 5.441 27.398-2.765 34.533-18.345s3.243-32.62-8.692-38.064" fill="#468ab2"/><path d="M196.22 42.164a38.977 38.977 0 01-8.754-1.896l-2.243 3.917a69.32 69.32 0 009.227 2.298z" fill="#bf3227"/></svg>